<svg xmlns="http://www.w3.org/2000/svg" xmlns:svg="http://www.w3.org/2000/svg" id="svg2" width="128" height="128" version="1.1" viewBox="0 0 128 128"><defs id="defs4"><marker id="marker8454" orient="auto" refX="0" refY="0" style="overflow:visible"><path id="path8456" d="M 5.77,0.0 L -2.88,5.0 L -2.88,-5.0 L 5.77,0.0 z" transform="scale(0.2)" style="fill-rule:evenodd;stroke:#b9b9b9;stroke-width:1pt;stroke-opacity:1;fill:#b9b9b9;fill-opacity:1"/></marker><marker id="TriangleInS" orient="auto" refX="0" refY="0" style="overflow:visible"><path id="path4339" d="M 5.77,0.0 L -2.88,5.0 L -2.88,-5.0 L 5.77,0.0 z" transform="scale(-0.2)" style="fill-rule:evenodd;stroke:#6e6565;stroke-width:1pt;stroke-opacity:1;fill:#6e6565;fill-opacity:1"/></marker><marker id="marker8070" orient="auto" refX="0" refY="0" style="overflow:visible"><path id="path8072" d="M 5.77,0.0 L -2.88,5.0 L -2.88,-5.0 L 5.77,0.0 z" transform="scale(-0.4)" style="fill-rule:evenodd;stroke:red;stroke-width:1pt;stroke-opacity:1;fill:red;fill-opacity:1"/></marker><marker id="marker7904" orient="auto" refX="0" refY="0" style="overflow:visible"><path id="path7906" d="M 8.7185878,4.0337352 L -2.2072895,0.016013256 L 8.7185884,-4.0017078 C 6.9730900,-1.6296469 6.9831476,1.6157441 8.7185878,4.0337352 z" transform="scale(0.6) translate(0,0)" style="fill-rule:evenodd;stroke-width:.625;stroke-linejoin:round;stroke:#6e6565;stroke-opacity:1;fill:#6e6565;fill-opacity:1"/></marker><marker id="TriangleInM" orient="auto" refX="0" refY="0" style="overflow:visible"><path id="path4336" d="M 5.77,0.0 L -2.88,5.0 L -2.88,-5.0 L 5.77,0.0 z" transform="scale(-0.4)" style="fill-rule:evenodd;stroke:#6e6565;stroke-width:1pt;stroke-opacity:1;fill:#6e6565;fill-opacity:1"/></marker><marker id="Arrow2Mstart" orient="auto" refX="0" refY="0" style="overflow:visible"><path id="path4224" d="M 8.7185878,4.0337352 L -2.2072895,0.016013256 L 8.7185884,-4.0017078 C 6.9730900,-1.6296469 6.9831476,1.6157441 8.7185878,4.0337352 z" transform="scale(0.6) translate(0,0)" style="fill-rule:evenodd;stroke-width:.625;stroke-linejoin:round;stroke:#6e6565;stroke-opacity:1;fill:#6e6565;fill-opacity:1"/></marker><marker id="Arrow1Sstart" orient="auto" refX="0" refY="0" style="overflow:visible"><path id="path4212" d="M 0.0,0.0 L 5.0,-5.0 L -12.5,0.0 L 5.0,5.0 L 0.0,0.0 z" transform="scale(0.2) translate(6,0)" style="fill-rule:evenodd;stroke:#6e6565;stroke-width:1pt;stroke-opacity:1;fill:#6e6565;fill-opacity:1"/></marker><marker style="overflow:visible" id="marker7252" orient="auto" refX="0" refY="0"><path style="fill-rule:evenodd;stroke:#6e6565;stroke-width:1pt;stroke-opacity:1;fill:#6e6565;fill-opacity:1" id="path7254" d="M 5.77,0.0 L -2.88,5.0 L -2.88,-5.0 L 5.77,0.0 z" transform="scale(0.2)"/></marker><marker style="overflow:visible" id="marker7086" orient="auto" refX="0" refY="0"><path style="fill-rule:evenodd;stroke:#6e6565;stroke-width:1pt;stroke-opacity:1;fill:#6e6565;fill-opacity:1" id="path7088" d="M 5.77,0.0 L -2.88,5.0 L -2.88,-5.0 L 5.77,0.0 z" transform="scale(0.2)"/></marker><marker id="Arrow1Mstart" orient="auto" refX="0" refY="0" style="overflow:visible"><path id="path4206" d="M 0.0,0.0 L 5.0,-5.0 L -12.5,0.0 L 5.0,5.0 L 0.0,0.0 z" transform="scale(0.4) translate(10,0)" style="fill-rule:evenodd;stroke:#6e6565;stroke-width:1pt;stroke-opacity:1;fill:#6e6565;fill-opacity:1"/></marker><marker id="marker5984" orient="auto" refX="0" refY="0" style="overflow:visible"><path id="path5986" d="M 0.0,0.0 L 5.0,-5.0 L -12.5,0.0 L 5.0,5.0 L 0.0,0.0 z" transform="scale(0.2) rotate(180) translate(6,0)" style="fill-rule:evenodd;stroke:#6e6565;stroke-width:1pt;stroke-opacity:1;fill:#6e6565;fill-opacity:1"/></marker><marker id="marker5860" orient="auto" refX="0" refY="0" style="overflow:visible"><path id="path5862" d="M 5.77,0.0 L -2.88,5.0 L -2.88,-5.0 L 5.77,0.0 z" transform="scale(0.2)" style="fill-rule:evenodd;stroke:#000;stroke-width:1pt;stroke-opacity:1;fill:#000;fill-opacity:1"/></marker><marker id="marker5748" orient="auto" refX="0" refY="0" style="overflow:visible"><path id="path5750" d="M 5.77,0.0 L -2.88,5.0 L -2.88,-5.0 L 5.77,0.0 z" transform="scale(0.2)" style="fill-rule:evenodd;stroke:#d30000;stroke-width:1pt;stroke-opacity:1;fill:#d30000;fill-opacity:1"/></marker><marker style="overflow:visible" id="marker5642" orient="auto" refX="0" refY="0"><path style="fill-rule:evenodd;stroke:#1e2ae2;stroke-width:1pt;stroke-opacity:1;fill:#1e2ae2;fill-opacity:1" id="path5644" d="M 5.77,0.0 L -2.88,5.0 L -2.88,-5.0 L 5.77,0.0 z" transform="scale(0.2)"/></marker><marker id="TriangleOutS" orient="auto" refX="0" refY="0" style="overflow:visible"><path id="path4348" d="M 5.77,0.0 L -2.88,5.0 L -2.88,-5.0 L 5.77,0.0 z" transform="scale(0.2)" style="fill-rule:evenodd;stroke:#3fc913;stroke-width:1pt;stroke-opacity:1;fill:#3fc913;fill-opacity:1"/></marker><marker id="Arrow2Send" orient="auto" refX="0" refY="0" style="overflow:visible"><path id="path4233" d="M 8.7185878,4.0337352 L -2.2072895,0.016013256 L 8.7185884,-4.0017078 C 6.9730900,-1.6296469 6.9831476,1.6157441 8.7185878,4.0337352 z" transform="scale(0.3) rotate(180) translate(-2.3,0)" style="fill-rule:evenodd;stroke-width:.625;stroke-linejoin:round;stroke:#000;stroke-opacity:1;fill:#000;fill-opacity:1"/></marker><marker id="marker5298" orient="auto" refX="0" refY="0" style="overflow:visible"><path id="path5300" d="M 0.0,0.0 L 5.0,-5.0 L -12.5,0.0 L 5.0,5.0 L 0.0,0.0 z" transform="scale(0.2) rotate(180) translate(6,0)" style="fill-rule:evenodd;stroke:#000;stroke-width:1pt;stroke-opacity:1;fill:#000;fill-opacity:1"/></marker><marker id="Arrow1Send" orient="auto" refX="0" refY="0" style="overflow:visible"><path id="path4215" d="M 0.0,0.0 L 5.0,-5.0 L -12.5,0.0 L 5.0,5.0 L 0.0,0.0 z" transform="scale(0.2) rotate(180) translate(6,0)" style="fill-rule:evenodd;stroke:#6e6565;stroke-width:1pt;stroke-opacity:1;fill:#6e6565;fill-opacity:1"/></marker><marker id="marker4788" orient="auto" refX="0" refY="0" style="overflow:visible"><path id="path4790" d="M 8.7185878,4.0337352 L -2.2072895,0.016013256 L 8.7185884,-4.0017078 C 6.9730900,-1.6296469 6.9831476,1.6157441 8.7185878,4.0337352 z" transform="scale(1.1) rotate(180) translate(1,0)" style="fill-rule:evenodd;stroke-width:.625;stroke-linejoin:round;stroke:#3fc913;stroke-opacity:1;fill:#3fc913;fill-opacity:1"/></marker><marker id="marker4724" orient="auto" refX="0" refY="0" style="overflow:visible"><path id="path4726" d="M 0.0,0.0 L 5.0,-5.0 L -12.5,0.0 L 5.0,5.0 L 0.0,0.0 z" transform="scale(0.8) rotate(180) translate(12.5,0)" style="fill-rule:evenodd;stroke:#000;stroke-width:1pt;stroke-opacity:1;fill:#000;fill-opacity:1"/></marker><marker id="marker4666" orient="auto" refX="0" refY="0" style="overflow:visible"><path id="path4668" d="M 5.77,0.0 L -2.88,5.0 L -2.88,-5.0 L 5.77,0.0 z" transform="scale(0.8)" style="fill-rule:evenodd;stroke:#3fc913;stroke-width:1pt;stroke-opacity:1;fill:#3fc913;fill-opacity:1"/></marker><marker id="TriangleOutM" orient="auto" refX="0" refY="0" style="overflow:visible"><path id="path4345" d="M 5.77,0.0 L -2.88,5.0 L -2.88,-5.0 L 5.77,0.0 z" transform="scale(0.4)" style="fill-rule:evenodd;stroke:#6e6565;stroke-width:1pt;stroke-opacity:1;fill:#6e6565;fill-opacity:1"/></marker><marker id="Arrow2Lend" orient="auto" refX="0" refY="0" style="overflow:visible"><path id="path4221" d="M 8.7185878,4.0337352 L -2.2072895,0.016013256 L 8.7185884,-4.0017078 C 6.9730900,-1.6296469 6.9831476,1.6157441 8.7185878,4.0337352 z" transform="scale(1.1) rotate(180) translate(1,0)" style="fill-rule:evenodd;stroke-width:.625;stroke-linejoin:round;stroke:#3fc913;stroke-opacity:1;fill:#3fc913;fill-opacity:1"/></marker><marker id="TriangleOutL" orient="auto" refX="0" refY="0" style="overflow:visible"><path id="path4342" d="M 5.77,0.0 L -2.88,5.0 L -2.88,-5.0 L 5.77,0.0 z" transform="scale(0.8)" style="fill-rule:evenodd;stroke:#3fc913;stroke-width:1pt;stroke-opacity:1;fill:#3fc913;fill-opacity:1"/></marker><marker id="Arrow2Mend" orient="auto" refX="0" refY="0" style="overflow:visible"><path id="path4227" d="M 8.7185878,4.0337352 L -2.2072895,0.016013256 L 8.7185884,-4.0017078 C 6.9730900,-1.6296469 6.9831476,1.6157441 8.7185878,4.0337352 z" transform="scale(0.6) rotate(180) translate(0,0)" style="fill-rule:evenodd;stroke-width:.625;stroke-linejoin:round;stroke:#000;stroke-opacity:1;fill:#000;fill-opacity:1"/></marker><marker id="Arrow1Mend" orient="auto" refX="0" refY="0" style="overflow:visible"><path id="path4209" d="M 0.0,0.0 L 5.0,-5.0 L -12.5,0.0 L 5.0,5.0 L 0.0,0.0 z" transform="scale(0.4) rotate(180) translate(10,0)" style="fill-rule:evenodd;stroke:#3fc913;stroke-width:1pt;stroke-opacity:1;fill:#3fc913;fill-opacity:1"/></marker><marker id="Arrow1Lend" orient="auto" refX="0" refY="0" style="overflow:visible"><path id="path4203" d="M 0.0,0.0 L 5.0,-5.0 L -12.5,0.0 L 5.0,5.0 L 0.0,0.0 z" transform="scale(0.8) rotate(180) translate(12.5,0)" style="fill-rule:evenodd;stroke:#3fc913;stroke-width:1pt;stroke-opacity:1;fill:#3fc913;fill-opacity:1"/></marker></defs><metadata id="metadata7"/><g id="layer1" transform="translate(0,-924.36216)" style="display:inline"><path style="fill:none;fill-rule:evenodd;stroke:#1e2ae2;stroke-width:8.51971817;stroke-linecap:round;stroke-linejoin:miter;stroke-miterlimit:4;stroke-dasharray:none;stroke-opacity:1;marker-end:url(#marker5642)" id="path3392" d="m 64.57785,1002.1929 -50.394963,30.5605"/><path style="fill:none;fill-rule:evenodd;stroke:#3fc913;stroke-width:8.46639633;stroke-linecap:round;stroke-linejoin:miter;stroke-miterlimit:5;stroke-dasharray:none;stroke-opacity:1;marker-end:url(#TriangleOutS)" id="path3394" d="m 64.358097,1002.8207 0,-59.89661"/><path style="fill:none;fill-rule:evenodd;stroke:#d30000;stroke-width:8.41564465;stroke-linecap:round;stroke-linejoin:miter;stroke-miterlimit:4;stroke-dasharray:none;stroke-opacity:1;marker-end:url(#marker5748)" id="path6387" d="m 64.255081,1002.7545 49.049689,28.9106"/><circle style="fill:#ed0eff;fill-opacity:.47843137;fill-rule:evenodd;stroke:none;stroke-width:10;stroke-linecap:round;stroke-linejoin:miter;stroke-miterlimit:4;stroke-dasharray:none;stroke-dashoffset:0;stroke-opacity:.47770703" id="path6779" cx="63.909" cy="1003.382" r="22.86"/></g><g id="layer2" style="display:inline"><path style="fill:none;fill-rule:evenodd;stroke:#b9b9b9;stroke-width:5.69131041;stroke-linecap:butt;stroke-linejoin:miter;stroke-miterlimit:6;stroke-dasharray:none;stroke-opacity:1" id="path7045" d="M 64.163031,79.130568 5.0724865,44.948562"/><path style="fill:none;fill-rule:evenodd;stroke:#b9b9b9;stroke-width:6.09505463;stroke-linecap:butt;stroke-linejoin:miter;stroke-miterlimit:4;stroke-dasharray:none;stroke-opacity:1" id="path7047" d="M 63.186278,79.217855 121.4256,45.896467"/><path style="fill:none;fill-rule:evenodd;stroke:#b9b9b9;stroke-width:6.29989767;stroke-linecap:butt;stroke-linejoin:miter;stroke-miterlimit:4;stroke-dasharray:none;stroke-opacity:1" id="path7049" d="m 64.08588,127.00004 0,-48.508423"/></g></svg>